<svg width="24" height="24" viewBox="0 0 24 24" fill="none" xmlns="http://www.w3.org/2000/svg">
<path d="M10.7688 15.2457V22.0522H13.5376V15.2457H16.3064L16.9986 12.5231H13.5376V10.2702C13.5376 9.02047 13.5985 8.71554 13.7647 8.40789C13.8607 8.22431 14.0127 8.07485 14.1994 7.98043C14.5122 7.81572 15.0369 7.75718 16.3064 7.75718H17V5.1707C16.276 5.0686 15.6862 5.03321 15.2307 5.0618C14.0817 5.13395 13.4241 5.30139 12.8952 5.58045C12.2251 5.92852 11.6771 6.46692 11.3226 7.12554C10.9626 7.79122 10.7688 8.45145 10.7688 10.2715V12.5231H8V15.2457H10.7688Z" fill="white"/>
<path d="M23.4208 11.7631C23.4208 10.1459 23.4354 8.54335 23.3446 6.92909C23.2538 5.05409 22.8261 3.39003 21.455 2.01894C20.0809 0.644914 18.4198 0.22011 16.5448 0.129289C14.9276 0.038469 13.3251 0.0531175 11.7108 0.0531175C10.0936 0.0531175 8.49111 0.038469 6.87685 0.129289C5.00185 0.22011 3.33779 0.647844 1.96669 2.01894C0.592668 3.39296 0.167864 5.05409 0.0770433 6.92909C-0.0137771 8.54628 0.000871419 10.1488 0.000871419 11.7631C0.000871419 13.3773 -0.0137771 14.9828 0.0770433 16.5971C0.167864 18.4721 0.595598 20.1361 1.96669 21.5072C3.34072 22.8812 5.00185 23.306 6.87685 23.3969C8.49404 23.4877 10.0966 23.473 11.7108 23.473C13.328 23.473 14.9306 23.4877 16.5448 23.3969C18.4198 23.306 20.0839 22.8783 21.455 21.5072C22.829 20.1332 23.2538 18.4721 23.3446 16.5971C23.4384 14.9828 23.4208 13.3803 23.4208 11.7631ZM20.8427 18.6713C20.6288 19.2045 20.371 19.6029 19.9579 20.0131C19.5448 20.4262 19.1493 20.684 18.6161 20.8978C17.0751 21.5101 13.4159 21.3725 11.7079 21.3725C9.99989 21.3725 6.33779 21.5102 4.79677 20.9008C4.26357 20.6869 3.86513 20.4291 3.45497 20.016C3.04189 19.6029 2.78407 19.2074 2.57021 18.6742C1.96083 17.1303 2.09853 13.4711 2.09853 11.7631C2.09853 10.0551 1.96083 6.39296 2.57021 4.85195C2.78407 4.31874 3.04189 3.92031 3.45497 3.51015C3.86806 3.09999 4.26357 2.83925 4.79677 2.62538C6.33779 2.01601 9.99989 2.1537 11.7079 2.1537C13.4159 2.1537 17.078 2.01601 18.619 2.62538C19.1522 2.83925 19.5507 3.09706 19.9608 3.51015C20.3739 3.92323 20.6317 4.31874 20.8456 4.85195C21.455 6.39296 21.3173 10.0551 21.3173 11.7631C21.3173 13.4711 21.455 17.1303 20.8427 18.6713Z" fill="white"/>
</svg>
