<svg width="25" height="25" viewBox="0 0 25 25" fill="none" xmlns="http://www.w3.org/2000/svg">
<g clip-path="url(#clip0)">
<path d="M12.4218 5.75429C9.09657 5.75429 6.41298 8.43788 6.41298 11.7631C6.41298 15.0883 9.09657 17.7719 12.4218 17.7719C15.747 17.7719 18.4306 15.0883 18.4306 11.7631C18.4306 8.43788 15.747 5.75429 12.4218 5.75429ZM12.4218 15.6684C10.2714 15.6684 8.5165 13.9135 8.5165 11.7631C8.5165 9.61269 10.2714 7.85781 12.4218 7.85781C14.5722 7.85781 16.327 9.61269 16.327 11.7631C16.327 13.9135 14.5722 15.6684 12.4218 15.6684ZM18.6767 4.1078C17.9003 4.1078 17.2733 4.73476 17.2733 5.51113C17.2733 6.28749 17.9003 6.91445 18.6767 6.91445C19.453 6.91445 20.08 6.29042 20.08 5.51113C20.0802 5.32677 20.0441 5.14419 19.9736 4.97382C19.9032 4.80346 19.7998 4.64867 19.6695 4.51831C19.5391 4.38796 19.3843 4.2846 19.214 4.21416C19.0436 4.14371 18.861 4.10757 18.6767 4.1078ZM24.1347 11.7631C24.1347 10.1459 24.1493 8.54335 24.0585 6.92909C23.9677 5.05409 23.5399 3.39003 22.1688 2.01894C20.7948 0.644914 19.1337 0.22011 17.2587 0.129289C15.6415 0.038469 14.039 0.0531175 12.4247 0.0531175C10.8075 0.0531175 9.20497 0.038469 7.59072 0.129289C5.71572 0.22011 4.05165 0.647844 2.68056 2.01894C1.30654 3.39296 0.881731 5.05409 0.79091 6.92909C0.70009 8.54628 0.714739 10.1488 0.714739 11.7631C0.714739 13.3773 0.70009 14.9828 0.79091 16.5971C0.881731 18.4721 1.30947 20.1361 2.68056 21.5072C4.05458 22.8812 5.71572 23.306 7.59072 23.3969C9.2079 23.4877 10.8104 23.473 12.4247 23.473C14.0419 23.473 15.6444 23.4877 17.2587 23.3969C19.1337 23.306 20.7977 22.8783 22.1688 21.5072C23.5429 20.1332 23.9677 18.4721 24.0585 16.5971C24.1522 14.9828 24.1347 13.3803 24.1347 11.7631ZM21.5565 18.6713C21.3427 19.2045 21.0849 19.6029 20.6718 20.0131C20.2587 20.4262 19.8632 20.684 19.33 20.8978C17.789 21.5101 14.1298 21.3725 12.4218 21.3725C10.7138 21.3725 7.05165 21.5102 5.51064 20.9008C4.97743 20.6869 4.579 20.4291 4.16884 20.016C3.75575 19.6029 3.49794 19.2074 3.28407 18.6742C2.6747 17.1303 2.81239 13.4711 2.81239 11.7631C2.81239 10.0551 2.6747 6.39296 3.28407 4.85195C3.49794 4.31874 3.75575 3.92031 4.16884 3.51015C4.58193 3.09999 4.97743 2.83925 5.51064 2.62538C7.05165 2.01601 10.7138 2.1537 12.4218 2.1537C14.1298 2.1537 17.7919 2.01601 19.3329 2.62538C19.8661 2.83925 20.2645 3.09706 20.6747 3.51015C21.0878 3.92323 21.3456 4.31874 21.5595 4.85195C22.1688 6.39296 22.0311 10.0551 22.0311 11.7631C22.0311 13.4711 22.1688 17.1303 21.5565 18.6713Z" fill="white"/>
</g>
<defs>
<clipPath id="clip0">
<rect width="24" height="24" fill="white" transform="translate(0.421875 0.0522461)"/>
</clipPath>
</defs>
</svg>
